# xmcd CD database file
# Copyright (C) 1993-1998 Ti Kan
#
# Track frame offsets:
# 150
# 12022
# 21445
# 34895
# 43585
# 53652
# 64060
# 75422
# 87705
# 97555
#
# Disc length: 1435 seconds
# Revision: 0
# Processed by: cddbd v1.4b41PL1 Copyright (c) Steve Scherf et al.
# Submitted via: CDSpectrumPro v3.3.333
#
DISCID=6e05990a
DTITLE=Adam "Swanee" Swann - Banjo in the Bluegrass
DYEAR=1900
DGENRE=
TTITLE0=Thinking Tonight
TTITLE1=Pretty Polly
TTITLE2=The Great Speckled Bird
TTITLE3=Be Kind to Mother
TTITLE4=Top Hat Rambler (Notre Dame March)
TTITLE5=Will the Circle be Unbroken
TTITLE6=Beatiful Blue Eyes
TTITLE7=Maple on the Hill
TTITLE8=Cabin on a Mountain
TTITLE9=Kentucky Fiddler
EXTD=
EXTT0=
EXTT1=
EXTT2=
EXTT3=
EXTT4=
EXTT5=
EXTT6=
EXTT7=
EXTT8=
EXTT9=
PLAYORDER=
